<svg width="499" height="500" viewBox="0 0 499 500" fill="none" xmlns="http://www.w3.org/2000/svg">
<rect width="498.518" height="499.994" fill="white"/>
<rect x="16" y="17" width="467" height="466" rx="40" fill="#343434"/>
<rect x="43" y="7" width="413" height="414" rx="32" fill="#616161"/>
<path d="M138.219 317L143.551 242.352L146.012 187.938L146.695 163.738C146.878 156.72 146.969 149.975 146.969 143.504L146.832 130.379C161.142 130.561 171.852 130.652 178.961 130.652C184.521 130.652 194.182 130.561 207.945 130.379C205.758 156.538 204.345 179.643 203.707 199.695L278.082 199.559C278.538 192.085 278.948 182.013 279.312 169.344C279.768 156.583 279.996 147.879 279.996 143.23C279.996 140.77 279.905 136.486 279.723 130.379L312.125 130.652C315.497 130.652 325.068 130.561 340.836 130.379C337.555 177.228 335.458 212.091 334.547 234.969C333.635 257.755 333.18 285.099 333.18 317L303.375 316.727C298.909 316.727 288.245 316.818 271.383 317C273.661 295.307 275.211 270.06 276.031 241.258H201.52L199.195 317L167.477 316.727C163.466 316.727 153.714 316.818 138.219 317Z" fill="white"/>
</svg>
